<?xml version="1.0" encoding="UTF-8"?>
<svg version="1.1" xmlns="http://www.w3.org/2000/svg" width="200" height="185">
<path d="M0 0 C66 0 132 0 200 0 C200 61.05 200 122.1 200 185 C134 185 68 185 0 185 C0 123.95 0 62.9 0 0 Z " fill="#B3B3B3" transform="translate(0,0)"/>
<path d="M0 0 C66 0 132 0 200 0 C200 61.05 200 122.1 200 185 C134 185 68 185 0 185 C0 123.95 0 62.9 0 0 Z M63 5 C63 54.5 63 104 63 155 C65.97 155 68.94 155 72 155 C72 151.37 72 147.74 72 144 C84.21 144.33 96.42 144.66 109 145 C110.32 148.25875 111.64 151.5175 113 154.875 C113.41765625 155.88030762 113.8353125 156.88561523 114.265625 157.92138672 C114.59046875 158.74912598 114.9153125 159.57686523 115.25 160.4296875 C115.58515625 161.25710449 115.9203125 162.08452148 116.265625 162.93701172 C117 166 117 166 117 176 C125.25 176 133.5 176 142 176 C140.02 173.36 138.04 170.72 136 168 C135.91485622 162.03993558 137.46220517 156.97191596 139.37890625 151.359375 C140.21214342 148.60074779 140.21214342 148.60074779 140 144 C154.85 144 169.7 144 185 144 C185 147.63 185 151.26 185 155 C187.97 155 190.94 155 194 155 C194 105.5 194 56 194 5 C150.77 5 107.54 5 63 5 Z " fill="#D9D9D9" transform="translate(0,0)"/>
<path d="M0 0 C37.29 0 74.58 0 113 0 C113 18.48 113 36.96 113 56 C110.03 56 107.06 56 104 56 C104.02320313 56.77085938 104.04640625 57.54171875 104.0703125 58.3359375 C104.08835937 59.33882812 104.10640625 60.34171875 104.125 61.375 C104.14820313 62.37273437 104.17140625 63.37046875 104.1953125 64.3984375 C104 67 104 67 102 69 C101.401875 69.103125 100.80375 69.20625 100.1875 69.3125 C97.70107178 69.89982874 97.70107178 69.89982874 95.5625 72.5625 C93 75 93 75 90.1875 75.3125 C89.465625 75.209375 88.74375 75.10625 88 75 C87.505 76.98 87.505 76.98 87 79 C87 77.68 87 76.36 87 75 C83.04 75 79.08 75 75 75 C78.08669204 78.08669204 78.91927658 78.44855089 83 79 C83.33 79.99 83.66 80.98 84 82 C82.35 81.34 80.7 80.68 79 80 C79.33 81.32 79.66 82.64 80 84 C79.3503125 84.35191406 78.700625 84.70382813 78.03125 85.06640625 C75.48379376 86.57207869 73.20909207 88.02728938 71 90 C70.38784062 93.67295631 70.33805927 95.67611853 72 99 C73.78506572 115.5624654 69.49292519 130.33038211 64.734375 145.99584961 C63.80211553 149.29406277 63.80211553 149.29406277 64 154 C65.98 156.64 67.96 159.28 70 162 C61.75 162 53.5 162 45 162 C45 158.7 45 155.4 45 152 C44.16761043 148.52600254 44.16761043 148.52600254 42.8125 145.40625 C42.36132812 144.27445313 41.91015625 143.14265625 41.4453125 141.9765625 C40.96835938 140.82929688 40.49140625 139.68203125 40 138.5 C39.06005145 136.17807304 38.12242424 133.85520455 37.1875 131.53125 C36.76855469 130.51611328 36.34960938 129.50097656 35.91796875 128.45507812 C35 126 35 126 35 124 C31.7 123.67 28.4 123.34 25 123 C23.90493508 119.71480525 23.90039392 117.26336585 23.9375 113.8125 C23.94652344 112.72582031 23.95554687 111.63914062 23.96484375 110.51953125 C23.97644531 109.68808594 23.98804687 108.85664062 24 108 C22.515 107.505 22.515 107.505 21 107 C23.66924385 104.25224898 25.75847268 102.13767057 29.125 100.21875 C31.54829369 98.21678491 31.97780402 97.11629905 32.57763672 93.97338867 C32.81643485 90.20114857 32.88253304 86.4672032 32.875 82.6875 C32.895625 81.37458984 32.91625 80.06167969 32.9375 78.70898438 C32.98458308 75.47202292 33.00444196 72.23723384 33 69 C32.44054687 69.433125 31.88109375 69.86625 31.3046875 70.3125 C22.91047981 76.14256065 20.60159327 75 9 75 C9 89.85 9 104.7 9 120 C6.03 120 3.06 120 0 120 C0 101.85 0 83.7 0 65 C11.88 65 23.76 65 36 65 C35.505 66.98 35.505 66.98 35 69 C40.61 71.97 46.22 74.94 52 78 C52.66 77.34 53.32 76.68 54 76 C54 75.01 54 74.02 54 73 C53.01 72.505 53.01 72.505 52 72 C52.495 70.02 52.495 70.02 53 68 C56.75 66.875 56.75 66.875 59 68 C58.67 69.98 58.34 71.96 58 74 C59.32 74.66 60.64 75.32 62 76 C62.2475 75.29875 62.495 74.5975 62.75 73.875 C64.22905421 70.47317532 65.6116901 67.86235175 68 65 C70.76400223 64.44489158 72.64656142 64.28896991 75.390625 64.4140625 C76.44754547 64.42679703 76.44754547 64.42679703 77.52581787 64.43978882 C79.76879081 64.47328692 82.00812099 64.54853952 84.25 64.625 C85.77338543 64.65510515 87.29682744 64.68248003 88.8203125 64.70703125 C92.54805187 64.77305981 96.27367025 64.87654871 100 65 C100.144375 63.88625 100.28875 62.7725 100.4375 61.625 C101 58 101 58 102 56 C102.11786691 54.51987176 102.17692938 53.03483534 102.20532227 51.55029297 C102.22526749 50.62948944 102.24521271 49.70868591 102.26576233 48.75997925 C102.28247482 47.76410797 102.29918732 46.76823669 102.31640625 45.7421875 C102.3475779 44.21490524 102.3475779 44.21490524 102.37937927 42.6567688 C102.44489466 39.39624945 102.50376902 36.13564794 102.5625 32.875 C102.60568332 30.66796017 102.64929755 28.46092872 102.69335938 26.25390625 C102.8005781 20.83602225 102.90183996 15.41805539 103 10 C98.05 10 93.1 10 88 10 C88 25.18 88 40.36 88 56 C87.67 56 87.34 56 87 56 C87 41.15 87 26.3 87 11 C82.38 11 77.76 11 73 11 C73.495 13.206875 73.99 15.41375 74.5 17.6875 C75.44066107 21.88128062 76.19751666 25.69578274 76 30 C74.3767313 30.6708712 72.75132422 31.33657029 71.125 32 C70.22007812 32.37125 69.31515625 32.7425 68.3828125 33.125 C66 34 66 34 64 34 C63.664061 32.5422647 63.33133376 31.08378894 63 29.625 C62.814375 28.81289063 62.62875 28.00078125 62.4375 27.1640625 C62 25 62 25 62 23 C61.01 23.33 60.02 23.66 59 24 C59 26.97 59 29.94 59 33 C54.71 33.99 50.42 34.98 46 36 C46 35.34 46 34.68 46 34 C43.525 34.495 43.525 34.495 41 35 C41.495 37.475 41.495 37.475 42 40 C40.68 40 39.36 40 38 40 C37.67 39.34 37.34 38.68 37 38 C34.6568787 38.25561323 32.32156597 38.59270772 30 39 C29.67 39.66 29.34 40.32 29 41 C29 35.05956732 32.42094289 32.23893421 36.31396484 28.16357422 C45.30635946 19.78434755 59.04569083 18 71 18 C71 15.69 71 13.38 71 11 C70.34 11 69.68 11 69 11 C68.505 8.03 68.505 8.03 68 5 C64.79217315 4.661671 61.58366902 4.33023854 58.375 4 C57.47136719 3.90460937 56.56773437 3.80921875 55.63671875 3.7109375 C45.8275183 2.41008748 45.8275183 2.41008748 36.875 5.875 C28.92753623 11 28.92753623 11 25 11 C25 15.29 25 19.58 25 24 C24.67 24 24.34 24 24 24 C24 19.38 24 14.76 24 10 C19.05 10 14.1 10 9 10 C9 25.18 9 40.36 9 56 C6.03 56 3.06 56 0 56 C0 37.52 0 19.04 0 0 Z " fill="#8E8D8D" transform="translate(72,14)"/>
<path d="M0 0 C37.62 0 75.24 0 114 0 C119.27272727 13.18181818 119.27272727 13.18181818 117 20 C124.92 19.67 132.84 19.34 141 19 C139.02 16.69 137.04 14.38 135 12 C134.5625 9.453125 134.5625 9.453125 135 7.25 C135.185625 6.14398438 135.185625 6.14398438 135.375 5.015625 C136 3 136 3 138 0 C140.5942688 -0.36076355 140.5942688 -0.36076355 143.91845703 -0.34057617 C145.15959259 -0.34034958 146.40072815 -0.34012299 147.67947388 -0.33988953 C149.03892372 -0.32456848 150.39836991 -0.30892047 151.7578125 -0.29296875 C153.1450047 -0.28737427 154.53220283 -0.28310347 155.91940308 -0.28010559 C159.57249281 -0.26864497 163.22522534 -0.23916786 166.87817383 -0.20599365 C170.60493042 -0.17531868 174.33174638 -0.16144154 178.05859375 -0.14648438 C185.37271143 -0.11588991 192.6858479 -0.0571749 200 0 C200 9.57 200 19.14 200 29 C134 29 68 29 0 29 C0 19.43 0 9.86 0 0 Z " fill="#EEEEEE" transform="translate(0,156)"/>
<path d="M0 0 C13.53 0 27.06 0 41 0 C41 42.24 41 84.48 41 128 C27.47 128 13.94 128 0 128 C0 85.76 0 43.52 0 0 Z " fill="#9A9A9A" transform="translate(5,27)"/>
<path d="M0 0 C0.495 2.97 0.495 2.97 1 6 C1.66 6 2.32 6 3 6 C3 8.31 3 10.62 3 13 C2.3702124 13.14099121 1.7404248 13.28198242 1.09155273 13.42724609 C-1.79360665 14.07439951 -4.67805387 14.72467522 -7.5625 15.375 C-8.55314453 15.59671875 -9.54378906 15.8184375 -10.56445312 16.046875 C-12.50745004 16.48582447 -14.44837111 16.93407722 -16.38696289 17.39208984 C-18.5092474 17.88582884 -20.64392657 18.32606808 -22.78125 18.75 C-27.19745102 20.46502952 -29.75078248 23.20046774 -32.9375 26.625 C-33.82018555 27.54152344 -33.82018555 27.54152344 -34.72070312 28.4765625 C-36.15886757 29.97318892 -37.58110649 31.48509114 -39 33 C-38.505 33.495 -38.505 33.495 -38 34 C-37.4225 33.649375 -36.845 33.29875 -36.25 32.9375 C-34 32 -34 32 -31.8125 32.25 C-30 33 -30 33 -29 35 C-28.34 35 -27.68 35 -27 35 C-27 33.35 -27 31.7 -27 30 C-24.525 29.505 -24.525 29.505 -22 29 C-22 29.66 -22 30.32 -22 31 C-21.22914062 30.7834375 -20.45828125 30.566875 -19.6640625 30.34375 C-18.66117188 30.0653125 -17.65828125 29.786875 -16.625 29.5 C-15.62726563 29.2215625 -14.62953125 28.943125 -13.6015625 28.65625 C-11 28 -11 28 -9 28 C-9.495 23.545 -9.495 23.545 -10 19 C-8.68 18.67 -7.36 18.34 -6 18 C-5.664061 19.4577353 -5.33133376 20.91621106 -5 22.375 C-4.814375 23.18710937 -4.62875 23.99921875 -4.4375 24.8359375 C-4 27 -4 27 -4 29 C-3.38511719 28.71125 -2.77023438 28.4225 -2.13671875 28.125 C-1.32847656 27.75375 -0.52023438 27.3825 0.3125 27 C1.51326172 26.443125 1.51326172 26.443125 2.73828125 25.875 C5 25 5 25 8 25 C7.7834375 24.13117187 7.566875 23.26234375 7.34375 22.3671875 C7.0653125 21.21476562 6.786875 20.06234375 6.5 18.875 C6.2215625 17.73804687 5.943125 16.60109375 5.65625 15.4296875 C5.03546235 12.18533302 4.87993232 9.29185543 5 6 C5.99902344 6.01160156 6.99804688 6.02320313 8.02734375 6.03515625 C9.96287109 6.04869141 9.96287109 6.04869141 11.9375 6.0625 C13.22527344 6.07410156 14.51304687 6.08570313 15.83984375 6.09765625 C18.86298403 6.36532549 18.86298403 6.36532549 20 5 C22.53049402 4.92686433 25.03304837 4.90752473 27.5625 4.9375 C28.62887695 4.94426758 28.62887695 4.94426758 29.71679688 4.95117188 C31.47790013 4.96299136 33.23896036 4.98092737 35 5 C35.07647595 11.38623323 35.12877762 17.77234702 35.16479492 24.15893555 C35.17982036 26.3285768 35.20024653 28.49818798 35.22631836 30.66772461 C35.26297706 33.7980901 35.27978926 36.9280517 35.29296875 40.05859375 C35.30845261 41.01833603 35.32393646 41.97807831 35.33988953 42.96690369 C35.34141841 49.17624707 34.34609662 54.24656839 32 60 C31.0620459 59.9779248 30.1240918 59.95584961 29.15771484 59.93310547 C25.65585618 59.87461841 22.15971552 59.86128592 18.65771484 59.87792969 C17.14651792 59.87599018 15.63523149 59.8563814 14.12451172 59.81835938 C9.24100228 59.70246858 4.74435765 59.75260113 0 61 C-3.05163797 63.97342319 -4.62549301 66.99307073 -6 71 C-7.65 70.34 -9.3 69.68 -11 69 C-10.49396008 66.83125748 -10.00016187 65.00032373 -9 63 C-10.65 63 -12.3 63 -14 63 C-14.66 64.32 -15.32 65.64 -16 67 C-15.01 67.33 -14.02 67.66 -13 68 C-13.375 70.4375 -13.375 70.4375 -14 73 C-14.99 73.495 -14.99 73.495 -16 74 C-17.78759766 73.28735352 -17.78759766 73.28735352 -19.9140625 72.12890625 C-20.67460938 71.71962891 -21.43515625 71.31035156 -22.21875 70.88867188 C-23.0128125 70.45103516 -23.806875 70.01339844 -24.625 69.5625 C-25.42679688 69.12873047 -26.22859375 68.69496094 -27.0546875 68.24804688 C-29.04044151 67.17243012 -31.0218546 66.08952787 -33 65 C-33 63.68 -33 62.36 -33 61 C-32.34 60.67 -31.68 60.34 -31 60 C-30.34 57.69 -29.68 55.38 -29 53 C-41.87 53 -54.74 53 -68 53 C-68 52.34 -68 51.68 -68 51 C-65.03 51 -62.06 51 -59 51 C-59 35.82 -59 20.64 -59 5 C-52.66666667 5 -46.33333333 5 -40 5 C-38.49538168 4.05935626 -36.99423911 3.11109501 -35.53393555 2.10302734 C-24.24162109 -5.54262706 -12.70676258 -3.4654807 0 0 Z " fill="#B6B6B6" transform="translate(140,19)"/>
<path d="M0 0 C37.29 0 74.58 0 113 0 C113 18.48 113 36.96 113 56 C110.03 56 107.06 56 104 56 C104.02320313 56.77085938 104.04640625 57.54171875 104.0703125 58.3359375 C104.08835937 59.33882812 104.10640625 60.34171875 104.125 61.375 C104.14820313 62.37273437 104.17140625 63.37046875 104.1953125 64.3984375 C104 67 104 67 102 69 C101.401875 69.103125 100.80375 69.20625 100.1875 69.3125 C97.70107178 69.89982874 97.70107178 69.89982874 95.5625 72.5625 C93 75 93 75 90.1875 75.3125 C89.465625 75.209375 88.74375 75.10625 88 75 C87.505 76.98 87.505 76.98 87 79 C87 77.68 87 76.36 87 75 C86.13117188 75.11601563 85.26234375 75.23203125 84.3671875 75.3515625 C83.21476562 75.44179687 82.06234375 75.53203125 80.875 75.625 C79.73804688 75.74101563 78.60109375 75.85703125 77.4296875 75.9765625 C74 75 74 75 68 65 C78.56 65 89.12 65 100 65 C100.33 62.69 100.66 60.38 101 58 C101.495 57.01 101.495 57.01 102 56 C102.11786691 54.51987176 102.17692938 53.03483534 102.20532227 51.55029297 C102.22526749 50.62948944 102.24521271 49.70868591 102.26576233 48.75997925 C102.28247482 47.76410797 102.29918732 46.76823669 102.31640625 45.7421875 C102.3475779 44.21490524 102.3475779 44.21490524 102.37937927 42.6567688 C102.44489466 39.39624945 102.50376902 36.13564794 102.5625 32.875 C102.60568332 30.66796017 102.64929755 28.46092872 102.69335938 26.25390625 C102.8005781 20.83602225 102.90183996 15.41805539 103 10 C98.05 10 93.1 10 88 10 C88 25.18 88 40.36 88 56 C87.67 56 87.34 56 87 56 C87 41.15 87 26.3 87 11 C82.38 11 77.76 11 73 11 C73.495 13.206875 73.99 15.41375 74.5 17.6875 C75.44066107 21.88128062 76.19751666 25.69578274 76 30 C74.3767313 30.6708712 72.75132422 31.33657029 71.125 32 C70.22007812 32.37125 69.31515625 32.7425 68.3828125 33.125 C66 34 66 34 64 34 C63.664061 32.5422647 63.33133376 31.08378894 63 29.625 C62.814375 28.81289063 62.62875 28.00078125 62.4375 27.1640625 C62 25 62 25 62 23 C61.01 23.33 60.02 23.66 59 24 C59 26.97 59 29.94 59 33 C54.71 33.99 50.42 34.98 46 36 C46 35.34 46 34.68 46 34 C43.525 34.495 43.525 34.495 41 35 C41.495 37.475 41.495 37.475 42 40 C40.68 40 39.36 40 38 40 C37.67 39.34 37.34 38.68 37 38 C34.6568787 38.25561323 32.32156597 38.59270772 30 39 C29.67 39.66 29.34 40.32 29 41 C29 35.05956732 32.42094289 32.23893421 36.31396484 28.16357422 C45.30635946 19.78434755 59.04569083 18 71 18 C71 15.69 71 13.38 71 11 C70.34 11 69.68 11 69 11 C68.505 8.03 68.505 8.03 68 5 C64.79217315 4.661671 61.58366902 4.33023854 58.375 4 C57.47136719 3.90460937 56.56773437 3.80921875 55.63671875 3.7109375 C45.8275183 2.41008748 45.8275183 2.41008748 36.875 5.875 C28.92753623 11 28.92753623 11 25 11 C25 15.29 25 19.58 25 24 C24.67 24 24.34 24 24 24 C24 19.38 24 14.76 24 10 C19.05 10 14.1 10 9 10 C9 25.18 9 40.36 9 56 C6.03 56 3.06 56 0 56 C0 37.52 0 19.04 0 0 Z " fill="#8F8F8F" transform="translate(72,14)"/>
<path d="M0 0 C1.39456452 0.00667256 2.78911118 0.01863093 4.18359375 0.03515625 C5.2499707 0.04192383 5.2499707 0.04192383 6.33789062 0.04882812 C8.09899388 0.06064761 9.86005411 0.07858362 11.62109375 0.09765625 C11.6975697 6.48388948 11.74987137 12.87000327 11.78588867 19.2565918 C11.80091411 21.42623305 11.82134028 23.59584423 11.84741211 25.76538086 C11.88407081 28.89574635 11.90088301 32.02570795 11.9140625 35.15625 C11.92954636 36.11599228 11.94503021 37.07573456 11.96098328 38.06455994 C11.96251216 44.27390332 10.96719037 49.34422464 8.62109375 55.09765625 C7.68313965 55.07558105 6.74518555 55.05350586 5.77880859 55.03076172 C2.27694993 54.97227466 -1.21919073 54.95894217 -4.72119141 54.97558594 C-6.23238833 54.97364643 -7.74367476 54.95403765 -9.25439453 54.91601562 C-14.13790397 54.80012483 -18.6345486 54.85025738 -23.37890625 56.09765625 C-26.43054422 59.07107944 -28.00439926 62.09072698 -29.37890625 66.09765625 C-31.02890625 65.43765625 -32.67890625 64.77765625 -34.37890625 64.09765625 C-33.87286633 61.92891373 -33.37906812 60.09797998 -32.37890625 58.09765625 C-33.10078125 58.09765625 -33.82265625 58.09765625 -34.56640625 58.09765625 C-38.41684393 56.72861174 -39.41519369 54.51713996 -41.4609375 51.10546875 C-42.37890625 49.09765625 -42.37890625 49.09765625 -42.37890625 46.09765625 C-41.62681885 45.95142822 -40.87473145 45.8052002 -40.09985352 45.65454102 C-36.71291488 44.99371969 -33.32716024 44.32701935 -29.94140625 43.66015625 C-28.75740234 43.43005859 -27.57339844 43.19996094 -26.35351562 42.96289062 C-25.22880859 42.74052734 -24.10410156 42.51816406 -22.9453125 42.2890625 C-21.90318604 42.08482666 -20.86105957 41.88059082 -19.78735352 41.67016602 C-17.44134096 41.33489384 -17.44134096 41.33489384 -16.37890625 40.09765625 C-16.63814676 38.23529629 -16.96277085 36.3819189 -17.31640625 34.53515625 C-18.19419842 29.60420292 -18.57105157 25.0934345 -18.37890625 20.09765625 C-17.38890625 20.09765625 -16.39890625 20.09765625 -15.37890625 20.09765625 C-15.59546875 19.22882812 -15.81203125 18.36 -16.03515625 17.46484375 C-16.31359375 16.31242187 -16.59203125 15.16 -16.87890625 13.97265625 C-17.15734375 12.83570313 -17.43578125 11.69875 -17.72265625 10.52734375 C-18.3434439 7.28298927 -18.49897393 4.38951168 -18.37890625 1.09765625 C-17.37988281 1.10925781 -16.38085938 1.12085937 -15.3515625 1.1328125 C-14.06121094 1.14183594 -12.77085937 1.15085937 -11.44140625 1.16015625 C-9.50974609 1.17755859 -9.50974609 1.17755859 -7.5390625 1.1953125 C-3.82884067 1.08065793 -3.78819139 0.1094853 0 0 Z " fill="#B7B7B7" transform="translate(163.37890625,23.90234375)"/>
<path d="M0 0 C1.32 0.33 2.64 0.66 4 1 C4 5.29 4 9.58 4 14 C2.35 14 0.7 14 -1 14 C-1.495 10.535 -1.495 10.535 -2 7 C-4.81197457 9.81197457 -4.69902557 12.84011245 -5.125 16.625 C-5.21136719 17.33140625 -5.29773438 18.0378125 -5.38671875 18.765625 C-5.59881183 20.50950141 -5.80040991 22.2546484 -6 24 C-5.01 24 -4.02 24 -3 24 C-2.67 21.36 -2.34 18.72 -2 16 C-1.67 16 -1.34 16 -1 16 C-1 28.87 -1 41.74 -1 55 C2.3 55 5.6 55 9 55 C9 55.33 9 55.66 9 56 C-4.53 56 -18.06 56 -32 56 C-33.19628303 53.60743394 -33.10046264 52.16582087 -33.0625 49.5 C-33.05476562 48.613125 -33.04703125 47.72625 -33.0390625 46.8125 C-33.01302083 44.9375 -32.98697917 43.0625 -32.9609375 41.1875 C-32.95320312 40.300625 -32.94546875 39.41375 -32.9375 38.5 C-32.92589844 37.6853125 -32.91429687 36.870625 -32.90234375 36.03125 C-32.86632123 33.93090258 -32.86632123 33.93090258 -34 32 C-34.625 28.75 -34.625 28.75 -34 25 C-31.77225769 23.16666343 -29.51053824 21.81814316 -26.96875 20.45703125 C-26.3190625 19.97621094 -25.669375 19.49539062 -25 19 C-25 17.68 -25 16.36 -25 15 C-22.525 15.99 -22.525 15.99 -20 17 C-20.66 16.01 -21.32 15.02 -22 14 C-24.58380177 13.74969023 -24.58380177 13.74969023 -27 14 C-27.66 12.68 -28.32 11.36 -29 10 C-28.13117188 10.02320312 -27.26234375 10.04640625 -26.3671875 10.0703125 C-24.63855469 10.09738281 -24.63855469 10.09738281 -22.875 10.125 C-21.73804688 10.14820312 -20.60109375 10.17140625 -19.4296875 10.1953125 C-12.66603466 9.81013865 -9.6279812 7.74977017 -5 3 C-2.75 2.3125 -2.75 2.3125 -1 2 C-0.67 1.34 -0.34 0.68 0 0 Z " fill="#B4B4B4" transform="translate(176,79)"/>
<path d="M0 0 C0.99 0 1.98 0 3 0 C3.335939 1.4577353 3.66866624 2.91621106 4 4.375 C4.185625 5.18710937 4.37125 5.99921875 4.5625 6.8359375 C5 9 5 9 5 11 C7.97 10.01 10.94 9.02 14 8 C14.99 14.6 15.98 21.2 17 28 C-2.31818182 33 -2.31818182 33 -10 33 C-9.62746094 33.60328125 -9.25492188 34.2065625 -8.87109375 34.828125 C-8.39800781 35.62734375 -7.92492187 36.4265625 -7.4375 37.25 C-6.96183594 38.03890625 -6.48617187 38.8278125 -5.99609375 39.640625 C-4.84388642 42.36977492 -4.97320548 43.28432489 -6 46 C-6.33 46.99 -6.66 47.98 -7 49 C-5.515 49.495 -5.515 49.495 -4 50 C-4.375 52.4375 -4.375 52.4375 -5 55 C-5.99 55.495 -5.99 55.495 -7 56 C-8.78759766 55.28735352 -8.78759766 55.28735352 -10.9140625 54.12890625 C-12.05488281 53.51499023 -12.05488281 53.51499023 -13.21875 52.88867188 C-14.0128125 52.45103516 -14.806875 52.01339844 -15.625 51.5625 C-16.42679688 51.12873047 -17.22859375 50.69496094 -18.0546875 50.24804688 C-20.04044151 49.17243012 -22.0218546 48.08952787 -24 47 C-24 45.68 -24 44.36 -24 43 C-23.01 42.505 -23.01 42.505 -22 42 C-21.60438853 40.17767162 -21.60438853 40.17767162 -21.5 38 C-21.07754041 33.21468502 -20.13515819 28.66186325 -19 24 C-20.65 24.33 -22.3 24.66 -24 25 C-27.22265625 19.82421875 -27.22265625 19.82421875 -28 18 C-27.505 16.515 -27.505 16.515 -27 15 C-25.35 14.67 -23.7 14.34 -22 14 C-21.01 15.485 -21.01 15.485 -20 17 C-19.34 17 -18.68 17 -18 17 C-18 15.35 -18 13.7 -18 12 C-16.35 11.67 -14.7 11.34 -13 11 C-13 11.66 -13 12.32 -13 13 C-12.22914062 12.7834375 -11.45828125 12.566875 -10.6640625 12.34375 C-9.66117188 12.0653125 -8.65828125 11.786875 -7.625 11.5 C-6.62726563 11.2215625 -5.62953125 10.943125 -4.6015625 10.65625 C-2 10 -2 10 0 10 C-0.12568359 9.04287109 -0.12568359 9.04287109 -0.25390625 8.06640625 C-0.35574219 7.24011719 -0.45757812 6.41382813 -0.5625 5.5625 C-0.66691406 4.73878906 -0.77132812 3.91507813 -0.87890625 3.06640625 C-0.91886719 2.38449219 -0.95882812 1.70257813 -1 1 C-0.67 0.67 -0.34 0.34 0 0 Z " fill="#FCD8C4" transform="translate(131,37)"/>
<path d="M0 0 C0.99386719 0.00902344 1.98773438 0.01804688 3.01171875 0.02734375 C4.15060547 0.04474609 4.15060547 0.04474609 5.3125 0.0625 C4.44298222 8.36578243 1.93128248 16.33224326 -0.24804688 24.3671875 C-0.55935547 25.53765625 -0.87066406 26.708125 -1.19140625 27.9140625 C-1.47830322 28.97447754 -1.7652002 30.03489258 -2.06079102 31.12744141 C-2.86151495 34.37725845 -2.86151495 34.37725845 -2.6875 39.0625 C-0.7075 41.7025 1.2725 44.3425 3.3125 47.0625 C-4.9375 47.0625 -13.1875 47.0625 -21.6875 47.0625 C-21.6875 43.7625 -21.6875 40.4625 -21.6875 37.0625 C-22.42585975 33.80269961 -22.42585975 33.80269961 -23.65625 30.94140625 C-24.06230469 29.90435547 -24.46835938 28.86730469 -24.88671875 27.79882812 C-25.31597656 26.75146484 -25.74523437 25.70410156 -26.1875 24.625 C-27.03531324 22.50292092 -27.87925658 20.37929038 -28.71875 18.25390625 C-29.09580078 17.32779541 -29.47285156 16.40168457 -29.86132812 15.44750977 C-30.6875 13.0625 -30.6875 13.0625 -30.6875 10.0625 C-23.66076485 10.56593987 -16.66809091 11.10437968 -9.6875 12.0625 C-9.3575 8.4325 -9.0275 4.8025 -8.6875 1.0625 C-5.53819107 0.01273036 -3.29935544 -0.03881595 0 0 Z " fill="#616161" transform="translate(138.6875,128.9375)"/>
<path d="M0 0 C0.26297403 4.49887885 0.42174285 8.99577132 0.5625 13.5 C0.63791016 14.7684375 0.71332031 16.036875 0.79101562 17.34375 C1.00934649 26.65920021 1.00934649 26.65920021 -1.97314453 30.62109375 C-4.22545161 32.61752863 -6.50199138 34.32764537 -9 36 C-9.66 36.66 -10.32 37.32 -11 38 C-10.34 38.33 -9.68 38.66 -9 39 C-8.39190981 43.31973499 -8.25388752 47.64159754 -8 52 C-16.25 52 -24.5 52 -33 52 C-33 51.67 -33 51.34 -33 51 C-30.03 51 -27.06 51 -24 51 C-24 36.15 -24 21.3 -24 6 C-19.38 5.67 -14.76 5.34 -10 5 C-5.63138037 2.80589012 -5.63138037 2.80589012 -3.453125 1.05859375 C-2 0 -2 0 0 0 Z " fill="#C5C6C6" transform="translate(105,83)"/>
<path d="M0 0 C37.29 0 74.58 0 113 0 C113 18.48 113 36.96 113 56 C112.67 56 112.34 56 112 56 C112 37.85 112 19.7 112 1 C100.38443543 1.00369615 100.38443543 1.00369615 88.76953125 1.0625 C84.02313712 1.09871755 79.27731383 1.12886307 74.53076172 1.12011719 C70.69828526 1.11346713 66.86695968 1.13632521 63.03472137 1.17855453 C61.58215184 1.18958605 60.12946414 1.19047705 58.67688751 1.18042374 C47.48567305 1.11297889 39.76880028 3.65991817 30.35479736 9.69607544 C28 11 28 11 25 11 C25 15.29 25 19.58 25 24 C24.67 24 24.34 24 24 24 C24 19.38 24 14.76 24 10 C19.05 10 14.1 10 9 10 C9 25.18 9 40.36 9 56 C6.03 56 3.06 56 0 56 C0 37.52 0 19.04 0 0 Z " fill="#8F8F8F" transform="translate(72,14)"/>
<path d="M0 0 C0.76175537 0.0508374 1.52351074 0.1016748 2.30834961 0.15405273 C7.651515 0.55121454 12.69625715 1.33761559 17.875 2.75 C18.37 5.72 18.37 5.72 18.875 8.75 C19.535 8.75 20.195 8.75 20.875 8.75 C20.875 11.06 20.875 13.37 20.875 15.75 C20.2452124 15.89099121 19.6154248 16.03198242 18.96655273 16.17724609 C16.08139335 16.82439951 13.19694613 17.47467522 10.3125 18.125 C9.32185547 18.34671875 8.33121094 18.5684375 7.31054688 18.796875 C-3.6954094 21.02650275 -3.6954094 21.02650275 -13.125 26.75 C-13.785 26.75 -14.445 26.75 -15.125 26.75 C-16.83452553 28.17941746 -18.49458636 29.66846637 -20.125 31.1875 C-24.93516949 35.65508475 -24.93516949 35.65508475 -27.125 36.75 C-27.51197737 12.07896776 -27.51197737 12.07896776 -23.70458984 6.76904297 C-19.95766823 3.79888335 -15.75182207 2.79529869 -11.125 1.75 C-7.28359848 -0.81093435 -4.40484044 -0.33286067 0 0 Z " fill="#FAD9C6" transform="translate(122.125,16.25)"/>
<path d="M0 0 C10.07478346 1.36429359 20.02385726 3.05659557 30 5 C30.10369204 11.22152266 29.74235924 17.21571053 29.0234375 23.3984375 C28.75406218 26.24011438 28.75406218 26.24011438 31 29 C29.68 29 28.36 29 27 29 C26.67 31.97 26.34 34.94 26 38 C22.1936543 37.32829194 18.64793184 36.27253436 15 35 C15.45822468 31.53058454 15.89131683 28.32604951 17 25 C16.19175781 24.80664062 15.38351563 24.61328125 14.55078125 24.4140625 C13.48214844 24.15367188 12.41351563 23.89328125 11.3125 23.625 C9.72888672 23.24214844 9.72888672 23.24214844 8.11328125 22.8515625 C5 22 5 22 0 20 C0 13.4 0 6.8 0 0 Z " fill="#8D8F8F" transform="translate(105,91)"/>
<path d="M0 0 C11.88 0 23.76 0 36 0 C33.81588359 4.36823282 33.14800084 4.76702696 28.9375 6.6875 C25.74226528 8.0067939 25.74226528 8.0067939 23 10 C18.38 10 13.76 10 9 10 C9 24.85 9 39.7 9 55 C6.03 55 3.06 55 0 55 C0 36.85 0 18.7 0 0 Z " fill="#8E8E8E" transform="translate(72,79)"/>
<path d="M0 0 C8.91 0 17.82 0 27 0 C27 8.58 27 17.16 27 26 C18.09 26 9.18 26 0 26 C0 17.42 0 8.84 0 0 Z " fill="#E8E9E9" transform="translate(12,121)"/>
<path d="M0 0 C8.91 0 17.82 0 27 0 C27 8.58 27 17.16 27 26 C18.09 26 9.18 26 0 26 C0 17.42 0 8.84 0 0 Z " fill="#E7E8E8" transform="translate(12,64)"/>
<path d="M0 0 C8.91 0 17.82 0 27 0 C27 8.25 27 16.5 27 25 C18.09 25 9.18 25 0 25 C0 16.75 0 8.5 0 0 Z " fill="#EAEBEB" transform="translate(12,93)"/>
<path d="M0 0 C8.91 0 17.82 0 27 0 C27 8.25 27 16.5 27 25 C18.09 25 9.18 25 0 25 C0 16.75 0 8.5 0 0 Z " fill="#EAEBEB" transform="translate(12,36)"/>
<path d="M0 0 C0.64939736 2.37407592 1.29460053 4.7491639 1.9375 7.125 C2.11990234 7.79015625 2.30230469 8.4553125 2.49023438 9.140625 C3.32490031 12.23647681 4.03746277 15.25497918 4.50390625 18.4296875 C4.66761719 19.27789062 4.83132812 20.12609375 5 21 C5.66 21.33 6.32 21.66 7 22 C5.68 22 4.36 22 3 22 C3.37253906 22.60328125 3.74507812 23.2065625 4.12890625 23.828125 C4.60199219 24.62734375 5.07507813 25.4265625 5.5625 26.25 C6.03816406 27.03890625 6.51382813 27.8278125 7.00390625 28.640625 C8.15611358 31.36977492 8.02679452 32.28432489 7 35 C6.67 35.99 6.34 36.98 6 38 C7.485 38.495 7.485 38.495 9 39 C8.625 41.4375 8.625 41.4375 8 44 C7.01 44.495 7.01 44.495 6 45 C4.21240234 44.28735352 4.21240234 44.28735352 2.0859375 43.12890625 C0.94511719 42.51499023 0.94511719 42.51499023 -0.21875 41.88867188 C-1.0128125 41.45103516 -1.806875 41.01339844 -2.625 40.5625 C-3.42679688 40.12873047 -4.22859375 39.69496094 -5.0546875 39.24804688 C-7.04044151 38.17243012 -9.0218546 37.08952787 -11 36 C-11 34.68 -11 33.36 -11 32 C-10.34 31.67 -9.68 31.34 -9 31 C-8.60438853 29.17767162 -8.60438853 29.17767162 -8.5 27 C-8.07754041 22.21468502 -7.13515819 17.66186325 -6 13 C-7.65 13.33 -9.3 13.66 -11 14 C-14.22265625 8.82421875 -14.22265625 8.82421875 -15 7 C-14.67 6.01 -14.34 5.02 -14 4 C-12.35 3.67 -10.7 3.34 -9 3 C-8.01 4.485 -8.01 4.485 -7 6 C-6.34 6 -5.68 6 -5 6 C-5 4.35 -5 2.7 -5 1 C-2 0 -2 0 0 0 Z " fill="#F4CBB5" transform="translate(118,48)"/>
<path d="M0 0 C1.30492469 4.15944744 2.12019705 7.65036909 2 12 C0.3767313 12.6708712 -1.24867578 13.33657029 -2.875 14 C-3.77992188 14.37125 -4.68484375 14.7425 -5.6171875 15.125 C-8 16 -8 16 -10 16 C-10.335939 14.5422647 -10.66866624 13.08378894 -11 11.625 C-11.185625 10.81289063 -11.37125 10.00078125 -11.5625 9.1640625 C-12 7 -12 7 -12 5 C-12.99 5.33 -13.98 5.66 -15 6 C-15 8.97 -15 11.94 -15 15 C-19.29 15.99 -23.58 16.98 -28 18 C-28 17.34 -28 16.68 -28 16 C-29.65 16.33 -31.3 16.66 -33 17 C-32.67 18.65 -32.34 20.3 -32 22 C-33.32 22 -34.64 22 -36 22 C-36.33 21.34 -36.66 20.68 -37 20 C-39.3431213 20.25561323 -41.67843403 20.59270772 -44 21 C-44.33 21.66 -44.66 22.32 -45 23 C-45 17.06034093 -41.58023366 14.23228107 -37.67944336 10.16357422 C-28.02574317 1.19124223 -12.78688146 -0.46759341 0 0 Z " fill="#2A8FA5" transform="translate(146,32)"/>
<path d="M0 0 C0.99 0 1.98 0 3 0 C3 17.82 3 35.64 3 54 C0.03 54 -2.94 54 -6 54 C-6.495 36.675 -6.495 36.675 -7 19 C-7.33 20.65 -7.66 22.3 -8 24 C-8.99 24 -9.98 24 -11 24 C-11.39016838 13.03193342 -11.39016838 13.03193342 -9 8 C-8.01 7.34 -7.02 6.68 -6 6 C-6 8.64 -6 11.28 -6 14 C-4.35 14 -2.7 14 -1 14 C-1.01160156 13.40832031 -1.02320313 12.81664063 -1.03515625 12.20703125 C-1.08322386 7.99768215 -1.06006883 4.1077667 0 0 Z " fill="#8E8E8E" transform="translate(181,79)"/>
<path d="M0 0 C0 0.99 0 1.98 0 3 C14.19 3 28.38 3 43 3 C42.67 5.31 42.34 7.62 42 10 C40.59306885 9.96688721 40.59306885 9.96688721 39.15771484 9.93310547 C35.65585618 9.87461841 32.15971552 9.86128592 28.65771484 9.87792969 C27.14651792 9.87599018 25.63523149 9.8563814 24.12451172 9.81835938 C19.24100228 9.70246858 14.74435765 9.75260113 10 11 C6.94836203 13.97342319 5.37450699 16.99307073 4 21 C1.525 20.01 1.525 20.01 -1 19 C-0.49396008 16.83125748 -0.00016187 15.00032373 1 13 C0.278125 13 -0.44375 13 -1.1875 13 C-5.03793768 11.63095549 -6.03628744 9.41948371 -8.08203125 6.0078125 C-9 4 -9 4 -9 1 C-5.92677456 0.08941469 -3.19902639 -0.08886184 0 0 Z " fill="#A8A7A7" transform="translate(130,69)"/>
<path d="M0 0 C14.52 0 29.04 0 44 0 C44 3.3 44 6.6 44 10 C29.15 10 14.3 10 -1 10 C-0.67 6.7 -0.34 3.4 0 0 Z " fill="#DCDCDC" transform="translate(140,144)"/>
<path d="M0 0 C0.99386719 0.00902344 1.98773438 0.01804688 3.01171875 0.02734375 C4.15060547 0.04474609 4.15060547 0.04474609 5.3125 0.0625 C4.68603823 5.00458731 3.72739567 9.69758165 2.46484375 14.52734375 C2.20061363 15.54460289 2.20061363 15.54460289 1.93104553 16.58241272 C1.37427856 18.72256151 0.81223648 20.86128236 0.25 23 C-0.13121076 24.46149693 -0.51207343 25.92308471 -0.89257812 27.38476562 C-1.82019977 30.94506878 -2.75255359 34.5041124 -3.6875 38.0625 C-5.9975 38.0625 -8.3075 38.0625 -10.6875 38.0625 C-10.74656707 34.14589894 -10.78144858 30.22941543 -10.8125 26.3125 C-10.82925781 25.22066406 -10.84601563 24.12882812 -10.86328125 23.00390625 C-10.90774856 15.48893067 -10.16528777 8.42978019 -8.6875 1.0625 C-5.53819107 0.01273036 -3.29935544 -0.03881595 0 0 Z " fill="#474848" transform="translate(138.6875,128.9375)"/>
<path d="M0 0 C12.21 0 24.42 0 37 0 C40 7 40 7 40 10 C26.8 10 13.6 10 0 10 C0 6.7 0 3.4 0 0 Z " fill="#DCDCDC" transform="translate(72,144)"/>
<path d="M0 0 C4.62 0 9.24 0 14 0 C14 7.59 14 15.18 14 23 C17.3 23 20.6 23 24 23 C24 23.33 24 23.66 24 24 C10.47 24 -3.06 24 -17 24 C-17 23.67 -17 23.34 -17 23 C-11.39 23 -5.78 23 0 23 C0 15.41 0 7.82 0 0 Z " fill="#B6B6B6" transform="translate(161,111)"/>
<path d="M0 0 C1.67542976 0.28604898 3.34385343 0.61781233 5 1 C4.67 2.98 4.34 4.96 4 7 C5.32 7.66 6.64 8.32 8 9 C8.2475 8.2575 8.495 7.515 8.75 6.75 C10.09147301 3.79875938 11.60905526 2.15185026 14 0 C16.30591785 8.22130304 17.26088448 20.42736114 13.4375 28.16015625 C11.72686975 30.06047333 10.12951202 31.59300099 8 33 C6.37716192 29.75432383 7.45274766 26.36160376 7.9375 22.875 C8.03740234 22.12089844 8.13730469 21.36679688 8.24023438 20.58984375 C8.48798404 18.72582247 8.74328057 16.86280712 9 15 C8.09121094 15.0515625 7.18242187 15.103125 6.24609375 15.15625 C0.71540892 15.15625 -4.57499817 13.73161122 -9.9375 12.5 C-11.00291016 12.26152344 -12.06832031 12.02304688 -13.16601562 11.77734375 C-15.77890813 11.19149341 -18.39007007 10.59888542 -21 10 C-21 7.36 -21 4.72 -21 2 C-16.26210835 3.44323469 -12.01141849 5.37226733 -7.625 7.625 C-6.98433594 7.94984375 -6.34367187 8.2746875 -5.68359375 8.609375 C-4.12052499 9.40257407 -2.55999378 10.20077031 -1 11 C-0.67 9.35 -0.34 7.7 0 6 C-0.66 5.67 -1.32 5.34 -2 5 C-1.125 1.125 -1.125 1.125 0 0 Z " fill="#1C7678" transform="translate(126,81)"/>
<path d="M0 0 C4.64893671 1.54964557 5.77418958 5.48570507 8.0859375 9.62890625 C9.78367216 12.29351388 9.78367216 12.29351388 12.7265625 12.33984375 C13.47679687 12.22769531 14.22703125 12.11554688 15 12 C15.66 13.32 16.32 14.64 17 16 C15.35 15.34 13.7 14.68 12 14 C12.33 15.32 12.66 16.64 13 18 C12.3503125 18.35191406 11.700625 18.70382813 11.03125 19.06640625 C8.48379376 20.57207869 6.20909207 22.02728938 4 24 C3.38784062 27.67295631 3.33805927 29.67611853 5 33 C5.07181821 35.71760108 5.09299506 38.40859388 5.0625 41.125 C5.05798828 41.87910156 5.05347656 42.63320312 5.04882812 43.41015625 C5.03703499 45.27347127 5.01909942 47.13674555 5 49 C1.37 49 -2.26 49 -6 49 C-5.649375 48.113125 -5.29875 47.22625 -4.9375 46.3125 C-3.79092887 42.261282 -4.27054392 39.89132169 -5.7578125 36.03515625 C-5.83773437 35.36355469 -5.91765625 34.69195312 -6 34 C-4.56640625 32.59765625 -4.56640625 32.59765625 -2.5625 31.0625 C2.53277681 25.75449791 1.5826212 19.39427112 1.44311523 12.50219727 C1.28548124 8.21664411 0.91307464 4.19781406 0 0 Z " fill="#369294" transform="translate(139,80)"/>
<path d="M0 0 C0.26297403 4.49887885 0.42174285 8.99577132 0.5625 13.5 C0.63791016 14.7684375 0.71332031 16.036875 0.79101562 17.34375 C1.00837838 26.61789409 1.00837838 26.61789409 -1.93798828 30.65625 C-5.14077887 33.56374784 -7.88259352 35.62753117 -12 37 C-12.05338603 32.10034919 -12.05593724 27.20487576 -12.0078125 22.30517578 C-12.00064134 20.18923674 -12.04297359 18.07999842 -12.09375 15.96484375 C-12.01806772 7.1194768 -12.01806772 7.1194768 -9 3.80078125 C-3.47159091 0 -3.47159091 0 0 0 Z " fill="#72CACB" transform="translate(105,83)"/>
<path d="M0 0 C4.95 0 9.9 0 15 0 C15.19647038 2.68711024 15.38239615 5.37428331 15.5625 8.0625 C15.61857422 8.81466797 15.67464844 9.56683594 15.73242188 10.34179688 C16.04000617 15.07859502 15.83807173 19.32542212 15 24 C14.67 23.34 14.34 22.68 14 22 C9.38 22 4.76 22 0 22 C0 14.74 0 7.48 0 0 Z " fill="#C4C4C4" transform="translate(81,24)"/>
<path d="M0 0 C14.19 0 28.38 0 43 0 C43 2.31 43 4.62 43 7 C28.48 7 13.96 7 -1 7 C-0.67 4.69 -0.34 2.38 0 0 Z " fill="#A7A7A7" transform="translate(142,136)"/>
<path d="M0 0 C3.96 0 7.92 0 12 0 C12 1.32 12 2.64 12 4 C12.598125 4.226875 13.19625 4.45375 13.8125 4.6875 C16.65550249 6.39330149 17.70007475 7.96684109 19 11 C17.75767025 15.24166873 14.31085939 17.30264772 10.875 19.75 C10.31167969 20.16121094 9.74835938 20.57242188 9.16796875 20.99609375 C7.78398366 22.00476085 6.39269459 23.00339286 5 24 C1.67697814 22.43622501 -0.56184007 20.78646849 -3 18 C-3 17.34 -3 16.68 -3 16 C-3.66 15.67 -4.32 15.34 -5 15 C-4.02546875 14.41992188 -4.02546875 14.41992188 -3.03125 13.828125 C-2.1959375 13.30734375 -1.360625 12.7865625 -0.5 12.25 C0.3353125 11.73953125 1.170625 11.2290625 2.03125 10.703125 C2.6809375 10.14109375 3.330625 9.5790625 4 9 C4 7.68 4 6.36 4 5 C6.475 5.99 6.475 5.99 9 7 C8.34 6.01 7.68 5.02 7 4 C4.41619823 3.74969023 4.41619823 3.74969023 2 4 C1.34 2.68 0.68 1.36 0 0 Z " fill="#77CBCC" transform="translate(147,89)"/>
<path d="M0 0 C4.62 0 9.24 0 14 0 C14 6.93 14 13.86 14 21 C9.38 21 4.76 21 0 21 C0 14.07 0 7.14 0 0 Z " fill="#C6C6C6" transform="translate(161,25)"/>
<path d="M0 0 C12.87 0 25.74 0 39 0 C38.67 2.31 38.34 4.62 38 7 C34.81714304 8.59142848 31.4129558 8.00008284 27.9296875 7.87890625 C27.13345978 7.85529526 26.33723206 7.83168427 25.51687622 7.80735779 C22.96940471 7.73067789 20.4222339 7.64667239 17.875 7.5625 C16.14975438 7.50928363 14.42449402 7.4565432 12.69921875 7.40429688 C8.46595478 7.27505693 4.23294618 7.13924581 0 7 C0 4.69 0 2.38 0 0 Z " fill="#A7A7A7" transform="translate(72,72)"/>
<path d="M0 0 C1.10794922 0.07250977 1.10794922 0.07250977 2.23828125 0.14648438 C6.78073216 0.46293378 11.25062617 0.99116834 15.75 1.6875 C14.75 3.6875 14.75 3.6875 11.42578125 5.01171875 C1.70619768 8.16343583 -6.02930061 9.32345981 -16.25 7.6875 C-15.755 8.120625 -15.26 8.55375 -14.75 9 C-13.25 10.6875 -13.25 10.6875 -13.25 13.6875 C-14.87249941 14.52569158 -16.49808497 15.3579116 -18.125 16.1875 C-19.02992187 16.6515625 -19.93484375 17.115625 -20.8671875 17.59375 C-23.25 18.6875 -23.25 18.6875 -25.25 18.6875 C-25.25 15.3875 -25.25 12.0875 -25.25 8.6875 C-24.27417969 8.20539062 -23.29835938 7.72328125 -22.29296875 7.2265625 C-21.00775951 6.58864842 -19.72260618 5.95062169 -18.4375 5.3125 C-17.79490234 4.99539062 -17.15230469 4.67828125 -16.49023438 4.3515625 C-6.67508614 -0.53058377 -6.67508614 -0.53058377 0 0 Z " fill="#C4C4C3" transform="translate(122.25,16.3125)"/>
<path d="M0 0 C4.50012445 1.18639645 8.81773882 2.74518989 13.125 4.5 C12.465 7.8 11.805 11.1 11.125 14.5 C7.74893217 14.04865403 4.37430521 13.58919013 1 13.125 C-0.42699219 12.93550781 -0.42699219 12.93550781 -1.8828125 12.7421875 C-6.75210938 12.06589627 -11.26142347 11.28640169 -15.875 9.5 C-14.71316861 8.3039971 -13.54489664 7.11368115 -12.34765625 5.953125 C-10.91252345 4.5370258 -9.54844217 3.05004144 -8.1875 1.5625 C-4.5427299 -0.70688516 -3.99580168 -0.74041654 0 0 Z " fill="#379395" transform="translate(108.875,111.5)"/>
<path d="M0 0 C3.95826931 -0.05880857 7.91642392 -0.09386513 11.875 -0.125 C12.98359375 -0.14175781 14.0921875 -0.15851563 15.234375 -0.17578125 C30.27826129 -0.2642747 30.27826129 -0.2642747 35 2 C35.66 3.65 36.32 5.3 37 7 C24.79 7 12.58 7 0 7 C0 4.69 0 2.38 0 0 Z " fill="#A7A7A7" transform="translate(72,136)"/>
<path d="M0 0 C1.30492469 4.15944744 2.12019705 7.65036909 2 12 C0.3767313 12.6708712 -1.24867578 13.33657029 -2.875 14 C-3.77992188 14.37125 -4.68484375 14.7425 -5.6171875 15.125 C-8 16 -8 16 -10 16 C-10.335939 14.5422647 -10.66866624 13.08378894 -11 11.625 C-11.185625 10.81289063 -11.37125 10.00078125 -11.5625 9.1640625 C-12 7 -12 7 -12 5 C-15.34252724 4.92572162 -17.8035914 4.93453047 -21 6 C-21.99 5.34 -22.98 4.68 -24 4 C-21.31466436 3.32338 -18.627275 2.65853879 -15.9375 2 C-15.18533203 1.80921875 -14.43316406 1.6184375 -13.65820312 1.421875 C-8.97226664 0.2858904 -4.82067454 -0.20486266 0 0 Z " fill="#3F93A6" transform="translate(146,32)"/>
<path d="M0 0 C0.33 0 0.66 0 1 0 C1.04898438 0.71027344 1.09796875 1.42054687 1.1484375 2.15234375 C1.22320312 3.07144531 1.29796875 3.99054688 1.375 4.9375 C1.44460937 5.85402344 1.51421875 6.77054687 1.5859375 7.71484375 C1.72257812 8.46894531 1.85921875 9.22304687 2 10 C2.66 10.33 3.32 10.66 4 11 C4.60809019 15.31973499 4.74611248 19.64159754 5 24 C-3.25 24 -11.5 24 -20 24 C-20 23.67 -20 23.34 -20 23 C-13.73 22.34 -7.46 21.68 -1 21 C-1 20.01 -1 19.02 -1 18 C-2.65 18 -4.3 18 -6 18 C-6 13.71 -6 9.42 -6 5 C-4.02 5 -2.04 5 0 5 C0 3.35 0 1.7 0 0 Z " fill="#B5B9B9" transform="translate(92,111)"/>
<path d="M0 0 C14.85 0 29.7 0 45 0 C45 1.32 45 2.64 45 4 C30.15 4 15.3 4 0 4 C0 2.68 0 1.36 0 0 Z " fill="#EEEEEE" transform="translate(139,150)"/>
<path d="M0 0 C1.48462012 3.95898698 1.28657005 8.02676895 0 12 C-1.85945129 14.5525195 -4.08076352 16.48653779 -6.5 18.5 C-7.10714844 19.03625 -7.71429688 19.5725 -8.33984375 20.125 C-12.77830038 24 -12.77830038 24 -14 24 C-13.85738409 22.12475253 -13.71075143 20.24981036 -13.5625 18.375 C-13.48128906 17.33085938 -13.40007812 16.28671875 -13.31640625 15.2109375 C-13.21199219 14.15132812 -13.10757813 13.09171875 -13 12 C-12.9484375 10.948125 -12.896875 9.89625 -12.84375 8.8125 C-12 6 -12 6 -9.27734375 4.1015625 C-8.17519531 3.61429688 -7.07304688 3.12703125 -5.9375 2.625 C-4.83277344 2.12226563 -3.72804688 1.61953125 -2.58984375 1.1015625 C-1.30787109 0.55628906 -1.30787109 0.55628906 0 0 Z " fill="#E1E1E1" transform="translate(109,29)"/>
<path d="M0 0 C0.33 0.99 0.66 1.98 1 3 C-1.64 5.64 -4.28 8.28 -7 11 C-6.67 11.33 -6.34 11.66 -6 12 C-3.66264216 14.8454791 -2.24987236 17.538815 -1 21 C0.98 20.34 2.96 19.68 5 19 C4.01 21.97 3.02 24.94 2 28 C-2.455 27.01 -2.455 27.01 -7 26 C-7 25.01 -7 24.02 -7 23 C-6.01 22.67 -5.02 22.34 -4 22 C-5.98 20.02 -7.96 18.04 -10 16 C-10.33 20.29 -10.66 24.58 -11 29 C-11.66 29 -12.32 29 -13 29 C-14.37342392 14.23145395 -14.37342392 14.23145395 -11.13671875 8.97265625 C-8.86298124 6.73613212 -6.60411215 4.83667512 -4 3 C-3.24203125 2.43023437 -2.4840625 1.86046875 -1.703125 1.2734375 C-0.86007813 0.64308594 -0.86007813 0.64308594 0 0 Z " fill="#9FA0A0" transform="translate(108,41)"/>
<path d="M0 0 C1.32 0.33 2.64 0.66 4 1 C4 5.29 4 9.58 4 14 C2.35 14 0.7 14 -1 14 C-1.33 11.69 -1.66 9.38 -2 7 C-4.60129106 9.49977726 -7.02044532 11.97372189 -9 15 C-8.65573965 18.46236232 -8.65573965 18.46236232 -7 21 C-11 21 -11 21 -12.484375 19.609375 C-13.11085937 18.68898438 -13.11085937 18.68898438 -13.75 17.75 C-14.17796875 17.14671875 -14.6059375 16.5434375 -15.046875 15.921875 C-16 14 -16 14 -16 10 C-15.113125 9.773125 -14.22625 9.54625 -13.3125 9.3125 C-9.54801843 7.82091296 -7.79534125 5.86890286 -5 3 C-2.75 2.3125 -2.75 2.3125 -1 2 C-0.67 1.34 -0.34 0.68 0 0 Z " fill="#F0D3C2" transform="translate(176,79)"/>
<path d="M0 0 C2.01953125 1.71484375 2.01953125 1.71484375 3.8125 3.9375 C4.41707031 4.66839844 5.02164063 5.39929688 5.64453125 6.15234375 C7 8 7 8 7 9 C-1.25 9 -9.5 9 -18 9 C-17 4 -17 4 -16 2 C-13.671875 1.3671875 -13.671875 1.3671875 -10.75 0.875 C-9.79609375 0.70742187 -8.8421875 0.53984375 -7.859375 0.3671875 C-2.5194085 -0.3185459 -2.5194085 -0.3185459 0 0 Z " fill="#298DA4" transform="translate(135,167)"/>
<path d="M0 0 C12.87 0 25.74 0 39 0 C39.495 1.98 39.495 1.98 40 4 C26.8 4 13.6 4 0 4 C0 2.68 0 1.36 0 0 Z " fill="#EEEEEE" transform="translate(72,150)"/>
<path d="M0 0 C3.63 0 7.26 0 11 0 C11 1.65 11 3.3 11 5 C9.02 5 7.04 5 5 5 C5 9.29 5 13.58 5 18 C6.65 18 8.3 18 10 18 C10 18.99 10 19.98 10 21 C5.05 21.495 5.05 21.495 0 22 C0 14.74 0 7.48 0 0 Z " fill="#B1B1B1" transform="translate(81,111)"/>
<path d="M0 0 C4.64893671 1.54964557 5.77418958 5.48570507 8.0859375 9.62890625 C9.78367216 12.29351388 9.78367216 12.29351388 12.7265625 12.33984375 C13.47679687 12.22769531 14.22703125 12.11554688 15 12 C15.66 13.32 16.32 14.64 17 16 C14.525 15.01 14.525 15.01 12 14 C12.33 15.32 12.66 16.64 13 18 C11.52270825 19.00276773 10.04311423 20.00214454 8.5625 21 C7.73878906 21.556875 6.91507813 22.11375 6.06640625 22.6875 C4 24 4 24 3 24 C2.94465088 23.45061768 2.88930176 22.90123535 2.83227539 22.33520508 C2.57818747 19.82737577 2.32037701 17.31994239 2.0625 14.8125 C1.97548828 13.94818359 1.88847656 13.08386719 1.79882812 12.19335938 C1.3732769 8.0796975 0.92796186 4.03788809 0 0 Z " fill="#59A7A9" transform="translate(139,80)"/>
<path d="M0 0 C0 0.99 0 1.98 0 3 C8.58 2.67 17.16 2.34 26 2 C25.34 3.32 24.68 4.64 24 6 C13.68815127 6.1713593 3.55106856 5.83089941 -6.71411133 4.828125 C-8.85598969 4.62079018 -10.99899599 4.43100671 -13.14257812 4.2421875 C-14.51832604 4.11300676 -15.89398161 3.98283777 -17.26953125 3.8515625 C-18.49260986 3.73635254 -19.71568848 3.62114258 -20.97583008 3.50244141 C-24 3 -24 3 -27 1 C-17.97746114 0.16069406 -9.0598059 -0.12224626 0 0 Z " fill="#CFD3D5" transform="translate(117,173)"/>
<path d="M0 0 C2.97 0 5.94 0 9 0 C9 20.46 9 40.92 9 62 C5.7 62 2.4 62 -1 62 C-1 61.67 -1 61.34 -1 61 C1.97 61 4.94 61 8 61 C8 43.18 8 25.36 8 7 C7.01 7 6.02 7 5 7 C5 8.65 5 10.3 5 12 C4.67 10.68 4.34 9.36 4 8 C2.68 7.67 1.36 7.34 0 7 C0 4.69 0 2.38 0 0 Z " fill="#A2A1A1" transform="translate(176,72)"/>
<path d="M0 0 C1.76949095 -0.10815225 3.54087487 -0.18566083 5.3125 -0.25 C6.29863281 -0.29640625 7.28476563 -0.3428125 8.30078125 -0.390625 C11 0 11 0 12.85546875 2.015625 C13.23316406 2.67046875 13.61085937 3.3253125 14 4 C12.68 4 11.36 4 10 4 C9.67 6.97 9.34 9.94 9 13 C5.1936543 12.32829194 1.64793184 11.27253436 -2 10 C-1.54177532 6.53058454 -1.10868317 3.32604951 0 0 Z " fill="#FAD8C5" transform="translate(122,116)"/>
<path d="M0 0 C8.68710359 3.37420719 8.68710359 3.37420719 10 6 C10.99 6.33 11.98 6.66 13 7 C12.625 9.4375 12.625 9.4375 12 12 C11.01 12.495 11.01 12.495 10 13 C8.21240234 12.28735352 8.21240234 12.28735352 6.0859375 11.12890625 C5.32539062 10.71962891 4.56484375 10.31035156 3.78125 9.88867188 C2.9871875 9.45103516 2.193125 9.01339844 1.375 8.5625 C0.57320312 8.12873047 -0.22859375 7.69496094 -1.0546875 7.24804688 C-3.04044151 6.17243012 -5.0218546 5.08952787 -7 4 C-7 2.68 -7 1.36 -7 0 C-4.18238799 -1.40880601 -3.05754978 -0.84570526 0 0 Z " fill="#BEC0C0" transform="translate(114,80)"/>
<path d="M0 0 C6.61620187 0.40650393 13.10633079 1.26457802 19.625 2.4375 C20.33591797 2.55971924 21.04683594 2.68193848 21.77929688 2.80786133 C23.53392508 3.13589495 25.27001522 3.56013769 27 4 C27.33 4.66 27.66 5.32 28 6 C18.76 6 9.52 6 0 6 C0 4.02 0 2.04 0 0 Z " fill="#747474" transform="translate(99,123)"/>
<path d="M0 0 C3.66881155 0.70554068 6.70450534 2.27735506 10 4 C9.32902328 8.19360449 7.1441606 11.40334352 5 15 C2.525 14.01 2.525 14.01 0 13 C0.50603992 10.83125748 0.99983813 9.00032373 2 7 C0.68 6.34 -0.64 5.68 -2 5 C-1.34 3.35 -0.68 1.7 0 0 Z " fill="#BFC0C0" transform="translate(129,75)"/>
<path d="M0 0 C5.3537465 1.55652055 10.00150947 3.9817509 14.875 6.625 C15.65875 7.04523438 16.4425 7.46546875 17.25 7.8984375 C19.16892057 8.9281022 21.08477603 9.96347567 23 11 C19.74131735 12.08622755 18.60795726 11.91122669 15.33203125 11.22265625 C13.99301758 10.94711914 13.99301758 10.94711914 12.62695312 10.66601562 C11.69818359 10.46685547 10.76941406 10.26769531 9.8125 10.0625 C8.87212891 9.86720703 7.93175781 9.67191406 6.96289062 9.47070312 C4.64039546 8.98734119 2.31963794 8.4968617 0 8 C0 5.36 0 2.72 0 0 Z " fill="#187678" transform="translate(105,83)"/>
<path d="M0 0 C2.35424675 -0.02726927 4.70816962 -0.04696719 7.0625 -0.0625 C8.37347656 -0.07410156 9.68445313 -0.08570312 11.03515625 -0.09765625 C14.8163519 -0.00452335 18.27920707 0.38551274 22 1 C21 3 21 3 17.2890625 4.32421875 C15.73682797 4.78695533 14.18198591 5.24101139 12.625 5.6875 C11.45324219 6.04424805 11.45324219 6.04424805 10.2578125 6.40820312 C9.505 6.62798828 8.7521875 6.84777344 7.9765625 7.07421875 C7.28643066 7.27619873 6.59629883 7.47817871 5.88525391 7.6862793 C4 8 4 8 1 7 C1 6.01 1 5.02 1 4 C0.6937566 2.66018514 0.36548445 1.32488113 0 0 Z " fill="#D4D3D3" transform="translate(116,17)"/>
<path d="M0 0 C1.134375 0.020625 2.26875 0.04125 3.4375 0.0625 C3.4375 1.3825 3.4375 2.7025 3.4375 4.0625 C3.7675 4.3925 4.0975 4.7225 4.4375 5.0625 C5.125 7.5 5.125 7.5 5.4375 10.0625 C3.4375 12.0625 3.4375 12.0625 1.4921875 12.2578125 C-0.52604167 12.19270833 -2.54427083 12.12760417 -4.5625 12.0625 C-4.8925 11.4025 -5.2225 10.7425 -5.5625 10.0625 C-5.2325 9.4025 -4.9025 8.7425 -4.5625 8.0625 C-3.5725 8.0625 -2.5825 8.0625 -1.5625 8.0625 C-2.8825 7.0725 -4.2025 6.0825 -5.5625 5.0625 C-4.43693182 0.07784091 -4.43693182 0.07784091 0 0 Z " fill="#2890A7" transform="translate(25.5625,70.9375)"/>
<path d="M0 0 C5.19644079 1.59890486 10.06612142 3.74138003 15 6 C14.6875 7.875 14.6875 7.875 14 10 C13.01 10.66 12.02 11.32 11 12 C7.04 10.02 3.08 8.04 -1 6 C-0.67 4.02 -0.34 2.04 0 0 Z " fill="#E1E0E0" transform="translate(111,73)"/>
<path d="M0 0 C2.31 0.33 4.62 0.66 7 1 C10.86206897 11.55172414 10.86206897 11.55172414 10 15 C8.13171911 16.9549258 6.20330939 18.39342024 4 20 C4.06960937 18.58847656 4.06960937 18.58847656 4.140625 17.1484375 C4.62002348 7.71747814 4.62002348 7.71747814 0 0 Z " fill="#F4CAB3" transform="translate(105,23)"/>
<path d="M0 0 C2 3 2 3 2 7 C-0.12232979 8.17176518 -2.24757791 9.33754785 -4.375 10.5 C-4.97828125 10.83386719 -5.5815625 11.16773438 -6.203125 11.51171875 C-10.7734375 14 -10.7734375 14 -13 14 C-13.33 14.66 -13.66 15.32 -14 16 C-14 12 -14 12 -12.42578125 9.96484375 C-8.81415252 6.50008347 -5.49169725 3.31390464 -1 1 C-0.67 0.67 -0.34 0.34 0 0 Z " fill="#26798C" transform="translate(115,39)"/>
<path d="M0 0 C6.875 5.75 6.875 5.75 8 8 C6.68 8 5.36 8 4 8 C4 8.99 4 9.98 4 11 C5.11375 10.938125 6.2275 10.87625 7.375 10.8125 C9.169375 10.9053125 9.169375 10.9053125 11 11 C11.99 12.485 11.99 12.485 13 14 C8.71 14 4.42 14 0 14 C0 9.38 0 4.76 0 0 Z " fill="#B5B5B5" transform="translate(97,56)"/>
<path d="M0 0 C1.98 0 3.96 0 6 0 C6 4.29 6 8.58 6 13 C4.02 13 2.04 13 0 13 C0 8.71 0 4.42 0 0 Z " fill="#E9E9E9" transform="translate(149,116)"/>
<path d="M0 0 C1.98 0 3.96 0 6 0 C6 4.29 6 8.58 6 13 C4.02 13 2.04 13 0 13 C0 8.71 0 4.42 0 0 Z " fill="#E9E9E9" transform="translate(165,51)"/>
<path d="M0 0 C1.98 0 3.96 0 6 0 C6 4.29 6 8.58 6 13 C4.02 13 2.04 13 0 13 C0 8.71 0 4.42 0 0 Z " fill="#EAEAEA" transform="translate(149,51)"/>
<path d="M0 0 C0 2.64 0 5.28 0 8 C-3.63 8 -7.26 8 -11 8 C-10 3 -10 3 -9 1 C-5.85554549 0.15014743 -3.29227921 0 0 0 Z " fill="#1F768A" transform="translate(128,168)"/>
<path d="M0 0 C1.67542976 0.28604898 3.34385343 0.61781233 5 1 C4.67 2.98 4.34 4.96 4 7 C4.99 7.66 5.98 8.32 7 9 C6.34 10.98 5.68 12.96 5 15 C4.01 15 3.02 15 2 15 C2 14.34 2 13.68 2 13 C1.01 12.67 0.02 12.34 -1 12 C-0.67 10.02 -0.34 8.04 0 6 C-0.66 5.67 -1.32 5.34 -2 5 C-1.125 1.125 -1.125 1.125 0 0 Z " fill="#737676" transform="translate(126,81)"/>
<path d="M0 0 C0.80824219 0.21398438 1.61648437 0.42796875 2.44921875 0.6484375 C2.77921875 2.6284375 3.10921875 4.6084375 3.44921875 6.6484375 C0.7404254 8.00283418 -1.56011393 7.71345201 -4.55078125 7.6484375 C-4.88078125 5.6684375 -5.21078125 3.6884375 -5.55078125 1.6484375 C-8.894516 2.20572663 -11.58391124 3.00017639 -14.55078125 4.6484375 C-10.63416378 -2.34552227 -7.48041052 -1.67835507 0 0 Z " fill="#408A9A" transform="translate(124.55078125,38.3515625)"/>
<path d="M0 0 C1.65 0 3.3 0 5 0 C5 1.65 5 3.3 5 5 C18.53 5 32.06 5 46 5 C46 5.33 46 5.66 46 6 C30.82 6 15.64 6 0 6 C0 4.02 0 2.04 0 0 Z " fill="#DCDCDC" transform="translate(0,150)"/>
<path d="M0 0 C2.31 0 4.62 0 7 0 C7 1.98 7 3.96 7 6 C6.01 6 5.02 6 4 6 C4 6.99 4 7.98 4 9 C4.66 9.33 5.32 9.66 6 10 C3.69 10.66 1.38 11.32 -1 12 C-2.35714063 8.33572029 -1.52286834 6.49363912 0 3 C0 2.01 0 1.02 0 0 Z " fill="#57939E" transform="translate(137,36)"/>
<path d="M0 0 C5.61 0 11.22 0 17 0 C17 1.32 17 2.64 17 4 C11.39 4 5.78 4 0 4 C0 2.68 0 1.36 0 0 Z " fill="#EEEEEE" transform="translate(46,150)"/>
<path d="M0 0 C3.63 0 7.26 0 11 0 C11 1.32 11 2.64 11 4 C9.68 4 8.36 4 7 4 C7 6.97 7 9.94 7 13 C6.01 13 5.02 13 4 13 C4 9.7 4 6.4 4 3 C2.68 3 1.36 3 0 3 C0 2.01 0 1.02 0 0 Z " fill="#53A0A2" transform="translate(20,99)"/>
<path d="M0 0 C1.32 0.33 2.64 0.66 4 1 C4 5.29 4 9.58 4 14 C2.35 14 0.7 14 -1 14 C-2.51708428 4.58997722 -2.51708428 4.58997722 0 0 Z " fill="#EBC3AE" transform="translate(176,79)"/>
<path d="M0 0 C0.19491883 4.19075475 -0.06669424 7.24079436 -2 11 C-2.99 11.495 -2.99 11.495 -4 12 C-4.84158536 10.73461631 -5.67299748 9.46246221 -6.5 8.1875 C-7.19609375 7.12595703 -7.19609375 7.12595703 -7.90625 6.04296875 C-9 4 -9 4 -9 1 C-5.92677456 0.08941469 -3.19902639 -0.08886184 0 0 Z " fill="#C3947E" transform="translate(130,69)"/>
<path d="M0 0 C1.65 0 3.3 0 5 0 C5 4.29 5 8.58 5 13 C3.35 13 1.7 13 0 13 C0 8.71 0 4.42 0 0 Z " fill="#EFEFEF" transform="translate(86,51)"/>
<path d="M0 0 C1.65 0 3.3 0 5 0 C5 3.96 5 7.92 5 12 C3.35 12 1.7 12 0 12 C0 8.04 0 4.08 0 0 Z " fill="#EFEFEF" transform="translate(165,116)"/>
<path d="M0 0 C1.65 0 3.3 0 5 0 C5 3.96 5 7.92 5 12 C3.35 12 1.7 12 0 12 C0 8.04 0 4.08 0 0 Z " fill="#F0F0F0" transform="translate(86,116)"/>
<path d="M0 0 C1.32 0 2.64 0 4 0 C4.02687279 1.81242052 4.04633715 3.62495233 4.0625 5.4375 C4.07410156 6.44683594 4.08570313 7.45617187 4.09765625 8.49609375 C4 11 4 11 3 12 C0.66702567 12.04092937 -1.66705225 12.04241723 -4 12 C-3.67 11.01 -3.34 10.02 -3 9 C-2.01 9 -1.02 9 0 9 C0 6.03 0 3.06 0 0 Z " fill="#2A7E91" transform="translate(25,128)"/>
<path d="M0 0 C1.4049404 3.89060419 0.69513239 7.23092362 0.0625 11.25 C-0.13214844 12.51328125 -0.32679688 13.7765625 -0.52734375 15.078125 C-0.68332031 16.04234375 -0.83929688 17.0065625 -1 18 C-1.99 18 -2.98 18 -4 18 C-4.38095238 7.29100529 -4.38095238 7.29100529 -2 2 C-1.34 1.34 -0.68 0.68 0 0 Z " fill="#414343" transform="translate(174,85)"/>
<path d="M0 0 C0.99 0 1.98 0 3 0 C3.33872513 1.41538717 3.67074624 2.83237963 4 4.25 C4.185625 5.03890625 4.37125 5.8278125 4.5625 6.640625 C5 9 5 9 5 13 C3.35 12.67 1.7 12.34 0 12 C-0.19401633 10.18818595 -0.38004375 8.37551468 -0.5625 6.5625 C-0.66691406 5.55316406 -0.77132812 4.54382812 -0.87890625 3.50390625 C-0.91886719 2.67761719 -0.95882812 1.85132813 -1 1 C-0.67 0.67 -0.34 0.34 0 0 Z " fill="#F4E4DC" transform="translate(131,37)"/>
<path d="M0 0 C2.00720923 0.28674418 4.0085944 0.61866701 6 1 C6.04254356 2.99954746 6.04080783 5.00041636 6 7 C5 8 5 8 2.5625 8.1875 C0 8 0 8 -2 6 C-1.44444444 1.44444444 -1.44444444 1.44444444 0 0 Z " fill="#C3C3C3" transform="translate(86,92)"/>
<path d="M0 0 C1.4540625 0.0309375 1.4540625 0.0309375 2.9375 0.0625 C3.5625 2.9375 3.5625 2.9375 3.9375 6.0625 C3.2775 6.7225 2.6175 7.3825 1.9375 8.0625 C-2.61805556 7.50694444 -2.61805556 7.50694444 -4.0625 6.0625 C-4.1875 3.5625 -4.1875 3.5625 -4.0625 1.0625 C-3.0625 0.0625 -3.0625 0.0625 0 0 Z " fill="#B3B3B3" transform="translate(152.0625,27.9375)"/>
<path d="M0 0 C2.5 0.25 2.5 0.25 4.5 2.25 C4.13318342 5.18453261 3.63562754 6.11437246 1.5 8.25 C-1.125 7.875 -1.125 7.875 -3.5 7.25 C-4.125 4.875 -4.125 4.875 -4.5 2.25 C-2.5 0.25 -2.5 0.25 0 0 Z " fill="#B3B3B3" transform="translate(88.5,27.75)"/>
<path d="M0 0 C2.5625 0.1875 2.5625 0.1875 4.5625 2.1875 C4.1875 4.8125 4.1875 4.8125 3.5625 7.1875 C1.1875 7.8125 1.1875 7.8125 -1.4375 8.1875 C-3.4375 6.1875 -3.4375 6.1875 -3.625 3.625 C-3.37291261 0.34786389 -3.27713611 0.25208739 0 0 Z " fill="#B2B2B2" transform="translate(167.4375,27.8125)"/>
<path d="M0 0 C0.66 0.66 1.32 1.32 2 2 C1.34 2 0.68 2 0 2 C0.20625 2.5775 0.4125 3.155 0.625 3.75 C1.08661261 6.51967567 0.42944945 7.64561267 -1 10 C-1.33 10 -1.66 10 -2 10 C-2.33 7.69 -2.66 5.38 -3 3 C-6.34252724 2.92572162 -8.8035914 2.93453047 -12 4 C-12.99 3.34 -13.98 2.68 -15 2 C-5.00312891 -0.48811014 -5.00312891 -0.48811014 0 0 Z " fill="#1C889F" transform="translate(137,34)"/>
<path d="M0 0 C3.96 0 7.92 0 12 0 C12 1.65 12 3.3 12 5 C11.01 5.33 10.02 5.66 9 6 C8.34 5.34 7.68 4.68 7 4 C4.41645782 3.83312552 4.41645782 3.83312552 2 4 C1.34 2.68 0.68 1.36 0 0 Z " fill="#C4C6C6" transform="translate(147,89)"/>
<path d="M0 0 C2.06277107 0.14194764 4.12521031 0.28872216 6.1875 0.4375 C7.91033203 0.55931641 7.91033203 0.55931641 9.66796875 0.68359375 C12.51598171 0.95403812 15.21210482 1.37521747 18 2 C18 2.33 18 2.66 18 3 C12.27959989 3.8320582 6.77759884 4.12036664 1 4 C0.67 2.68 0.34 1.36 0 0 Z " fill="#484848" transform="translate(108,139)"/>
<path d="M0 0 C0.66 0 1.32 0 2 0 C3.38308781 2.76617563 3.11210196 5.01018 3.09765625 8.1015625 C3.09443359 9.31328125 3.09121094 10.525 3.08789062 11.7734375 C3.07951172 13.04445313 3.07113281 14.31546875 3.0625 15.625 C3.05798828 16.90375 3.05347656 18.1825 3.04882812 19.5 C3.03701203 22.66671292 3.02053815 25.83333356 3 29 C2.34 28.67 1.68 28.34 1 28 C1.00523682 27.40461426 1.01047363 26.80922852 1.01586914 26.19580078 C1.03661999 23.50554453 1.04965407 20.81530511 1.0625 18.125 C1.07087891 17.18785156 1.07925781 16.25070313 1.08789062 15.28515625 C1.09111328 14.38925781 1.09433594 13.49335937 1.09765625 12.5703125 C1.10289307 11.74289551 1.10812988 10.91547852 1.11352539 10.06298828 C1.13352138 7.93588243 1.13352138 7.93588243 0 6 C-0.039992 4.00039988 -0.04346799 1.99952758 0 0 Z " fill="#97A0A0" transform="translate(142,105)"/>
<path d="M0 0 C0.99 0.33 1.98 0.66 3 1 C3 3.97 3 6.94 3 10 C1.35 10 -0.3 10 -2 10 C-1.54177532 6.53058454 -1.10868317 3.32604951 0 0 Z " fill="#DBDEDD" transform="translate(122,116)"/>
<path d="M0 0 C2.74277578 3.19990508 4.6302836 6.00499382 6 10 C4.68 10 3.36 10 2 10 C-0.25 7 -0.25 7 -2 4 C-1.34 2.68 -0.68 1.36 0 0 Z " fill="#E1E1E0" transform="translate(163,90)"/>
<path d="M0 0 C0.99 0 1.98 0 3 0 C3 4.29 3 8.58 3 13 C2.01 13 1.02 13 0 13 C0 8.71 0 4.42 0 0 Z " fill="#1F9294" transform="translate(24,42)"/>
<path d="M0 0 C0 0.66 0 1.32 0 2 C-1.65 2.33 -3.3 2.66 -5 3 C-4.67 4.65 -4.34 6.3 -4 8 C-5.32 8 -6.64 8 -8 8 C-9.75 6 -9.75 6 -11 4 C-9.73308493 3.32591692 -8.46129251 2.66099503 -7.1875 2 C-6.47980469 1.62875 -5.77210937 1.2575 -5.04296875 0.875 C-3 0 -3 0 0 0 Z " fill="#9F8B81" transform="translate(118,46)"/>
<path d="M0 0 C0.99 0 1.98 0 3 0 C3.33 2.64 3.66 5.28 4 8 C1.69 8.33 -0.62 8.66 -3 9 C-3 8.01 -3 7.02 -3 6 C-2.01 6 -1.02 6 0 6 C0 4.02 0 2.04 0 0 Z " fill="#248EA6" transform="translate(144,36)"/>
<path d="M0 0 C0.99 0 1.98 0 3 0 C3 3.63 3 7.26 3 11 C2.01 11 1.02 11 0 11 C0 7.37 0 3.74 0 0 Z " fill="#219193" transform="translate(24,101)"/>
<path d="M0 0 C1.32 0.33 2.64 0.66 4 1 C4 5 4 5 3 7 C1.68 6.67 0.36 6.34 -1 6 C-1 2 -1 2 0 0 Z " fill="#DFDEDE" transform="translate(129,75)"/>
<path d="M0 0 C1.32 0 2.64 0 4 0 C3.44271087 3.34373475 2.64826111 6.03312999 1 9 C0.34 9 -0.32 9 -1 9 C-1.125 2.25 -1.125 2.25 0 0 Z " fill="#C1957F" transform="translate(132,120)"/>
<path d="M0 0 C1.67542976 0.28604898 3.34385343 0.61781233 5 1 C4.34 2.65 3.68 4.3 3 6 C1.35 5.67 -0.3 5.34 -2 5 C-1.125 1.125 -1.125 1.125 0 0 Z " fill="#464646" transform="translate(126,81)"/>
<path d="M0 0 C0.33 0.66 0.66 1.32 1 2 C3.02463255 2.65213292 3.02463255 2.65213292 5 3 C4.67 3.99 4.34 4.98 4 6 C3.195625 5.505 2.39125 5.01 1.5625 4.5 C-2.82002454 2.65472651 -6.32315231 2.71938914 -11 3 C-7.38763322 1.10927186 -4.12167068 0 0 0 Z " fill="#C8AC9D" transform="translate(131,47)"/>
<path d="M0 0 C0.66 0 1.32 0 2 0 C2.33 1.65 2.66 3.3 3 5 C0.69 5.33 -1.62 5.66 -4 6 C-4 4.35 -4 2.7 -4 1 C-3.34 1 -2.68 1 -2 1 C-2 1.66 -2 2.32 -2 3 C-1.34 3 -0.68 3 0 3 C0 2.01 0 1.02 0 0 Z " fill="#EBD1C1" transform="translate(125,40)"/>
<path d="M0 0 C0.99 0 1.98 0 3 0 C2.67 4.29 2.34 8.58 2 13 C1.34 12.67 0.68 12.34 0 12 C0 8.04 0 4.08 0 0 Z " fill="#9FA0A0" transform="translate(96,122)"/>
<path d="M0 0 C1.32 0 2.64 0 4 0 C4.125 2.875 4.125 2.875 4 6 C3.34 6.66 2.68 7.32 2 8 C0 6 0 6 -0.125 2.875 C-0.08375 1.92625 -0.0425 0.9775 0 0 Z " fill="#464647" transform="translate(172,75)"/>
<path d="M0 0 C0.639375 0.2475 1.27875 0.495 1.9375 0.75 C2.2675 1.74 2.5975 2.73 2.9375 3.75 C2.6075 4.41 2.2775 5.07 1.9375 5.75 C-0.3725 5.09 -2.6825 4.43 -5.0625 3.75 C-4.7325 2.76 -4.4025 1.77 -4.0625 0.75 C-2.0625 -0.25 -2.0625 -0.25 0 0 Z " fill="#E7C3B0" transform="translate(108.0625,51.25)"/>
<path d="M0 0 C1.03115279 3.26913624 0.9638984 5.86041348 0.5625 9.25 C0.46066406 10.14203125 0.35882813 11.0340625 0.25390625 11.953125 C0.17011719 12.62859375 0.08632812 13.3040625 0 14 C-0.33 14 -0.66 14 -1 14 C-3 7.375 -3 7.375 -3 4 C-1.5 1.8125 -1.5 1.8125 0 0 Z " fill="#B48F7F" transform="translate(170,89)"/>
<path d="M0 0 C2.00720923 0.28674418 4.0085944 0.61866701 6 1 C6 2.65 6 4.3 6 6 C5.34 5.01 4.68 4.02 4 3 C3.01 3 2.02 3 1 3 C0.67 3.99 0.34 4.98 0 6 C-0.66 6 -1.32 6 -2 6 C-1.125 1.125 -1.125 1.125 0 0 Z " fill="#9F9F9F" transform="translate(86,92)"/>
<path d="M0 0 C1.98 0 3.96 0 6 0 C6 1.32 6 2.64 6 4 C4.02 4 2.04 4 0 4 C0 2.68 0 1.36 0 0 Z " fill="#EEEEEE" transform="translate(194,150)"/>
<path d="M0 0 C2.8125 -0.25 2.8125 -0.25 6 0 C7.875 2 7.875 2 9 4 C7.68 4 6.36 4 5 4 C4.67 4.66 4.34 5.32 4 6 C3.67 5.01 3.34 4.02 3 3 C1.50014391 1.33289654 1.50014391 1.33289654 0 0 Z " fill="#E9C3AE" transform="translate(127,116)"/>
<path d="M0 0 C2.31 0 4.62 0 7 0 C6.01 0.495 6.01 0.495 5 1 C5 1.99 5 2.98 5 4 C4.34 4 3.68 4 3 4 C3 3.34 3 2.68 3 2 C2.34 2 1.68 2 1 2 C1 3.65 1 5.3 1 7 C0.67 7 0.34 7 0 7 C0 4.69 0 2.38 0 0 Z " fill="#AA9082" transform="translate(120,39)"/>
<path d="M0 0 C1.65 0 3.3 0 5 0 C5 1.32 5 2.64 5 4 C3.35 4 1.7 4 0 4 C0 2.68 0 1.36 0 0 Z " fill="#EEEEEE" transform="translate(0,150)"/>
<path d="M0 0 C2.475 0.99 2.475 0.99 5 2 C4.67 2.99 4.34 3.98 4 5 C1.03 4.505 1.03 4.505 -2 4 C-1.34 2.68 -0.68 1.36 0 0 Z " fill="#3793A9" transform="translate(26,75)"/>
<path d="M0 0 C0.66 0 1.32 0 2 0 C2 1.98 2 3.96 2 6 C0.35 6 -1.3 6 -3 6 C-2.67 5.01 -2.34 4.02 -2 3 C-1.34 3.33 -0.68 3.66 0 4 C-0.33 3.01 -0.66 2.02 -1 1 C-0.67 0.67 -0.34 0.34 0 0 Z " fill="#EED3C2" transform="translate(142,36)"/>
<path d="M0 0 C1.65 0 3.3 0 5 0 C5 1.32 5 2.64 5 4 C3.35 4 1.7 4 0 4 C0 2.68 0 1.36 0 0 Z " fill="#ABABAB" transform="translate(165,104)"/>
<path d="M0 0 C1 2 1 2 0.0625 5.125 C-0.288125 6.07375 -0.63875 7.0225 -1 8 C-1.66 7.67 -2.32 7.34 -3 7 C-3.625 4.4375 -3.625 4.4375 -4 2 C-2.68 1.34 -1.36 0.68 0 0 Z " fill="#C69680" transform="translate(112,60)"/>
<path d="M0 0 C1.65 0 3.3 0 5 0 C5 1.32 5 2.64 5 4 C4.34 4 3.68 4 3 4 C2.34 4.66 1.68 5.32 1 6 C0.67 4.02 0.34 2.04 0 0 Z " fill="#A99083" transform="translate(137,36)"/>
<path d="M0 0 C1.98 0 3.96 0 6 0 C6 0.99 6 1.98 6 3 C4.02 3 2.04 3 0 3 C0 2.01 0 1.02 0 0 Z " fill="#9E9E9E" transform="translate(149,64)"/>
<path d="M0 0 C2.0625 0.4375 2.0625 0.4375 4 1 C3.67 2.32 3.34 3.64 3 5 C2.01 4.67 1.02 4.34 0 4 C-0.33 3.01 -0.66 2.02 -1 1 C-0.67 0.67 -0.34 0.34 0 0 Z " fill="#A2A1A1" transform="translate(110,50)"/>
</svg>
